<?xml version="1.0" encoding="UTF-8" standalone="no"?>
<!DOCTYPE svg PUBLIC "-//W3C//DTD SVG 1.1//EN" "http://www.w3.org/Graphics/SVG/1.1/DTD/svg11.dtd">
<svg width="100%" height="100%" viewBox="0 0 366 105" version="1.1" xmlns="http://www.w3.org/2000/svg" xmlns:xlink="http://www.w3.org/1999/xlink" xml:space="preserve" xmlns:serif="http://www.serif.com/" style="fill-rule:evenodd;clip-rule:evenodd;stroke-linejoin:round;stroke-miterlimit:2;">
    <g transform="matrix(1,0,0,1,-81.9317,-63.3195)">
        <g transform="matrix(0.254623,0,0,0.254623,-44.3706,-20.7288)">
            <path d="M906.336,330.089L496.037,330.089L496.037,740.388L906.336,740.388L906.336,330.089ZM721.469,447.999L721.469,622.479L844.876,622.479L844.876,590.222L759.835,590.222L759.835,447.999L721.469,447.999ZM557.497,447.999L557.497,622.479L632.763,622.479C646.122,622.479 657.729,620.239 667.585,615.759C677.442,611.278 685.669,605.129 692.267,597.309C698.865,589.489 703.793,580.203 707.051,569.451C710.309,558.698 711.939,546.969 711.939,534.261C711.939,519.762 709.943,507.136 705.951,496.384C701.96,485.632 696.421,476.672 689.334,469.503C682.248,462.335 673.858,456.959 664.164,453.375C654.471,449.791 644.004,447.999 632.763,447.999L557.497,447.999ZM595.863,590.222L595.863,480.256L623.232,480.256C632.681,480.256 640.623,481.6 647.058,484.288C653.493,486.976 658.666,490.845 662.576,495.895C666.486,500.946 669.296,507.014 671.007,514.101C672.717,521.188 673.573,529.13 673.573,537.927C673.573,547.539 672.351,555.684 669.907,562.364C667.463,569.043 664.205,574.46 660.132,578.614C656.059,582.769 651.416,585.742 646.203,587.534C640.99,589.326 635.614,590.222 630.075,590.222L595.863,590.222Z" style="fill:rgb(31,112,184);"/>
            <g transform="matrix(0.237841,0,0,0.237841,748.834,194.395)">
                <g transform="matrix(682.555,0,0,682.555,1034.34,1320.79)">
                    <path d="M0.226,-0.132L0.226,-0.582L0.338,-0.582C0.377,-0.582 0.409,-0.576 0.436,-0.566C0.462,-0.555 0.483,-0.539 0.499,-0.518C0.515,-0.497 0.527,-0.472 0.534,-0.444C0.541,-0.415 0.544,-0.382 0.544,-0.346C0.544,-0.307 0.539,-0.273 0.529,-0.246C0.519,-0.219 0.506,-0.197 0.489,-0.18C0.472,-0.163 0.453,-0.15 0.432,-0.143C0.411,-0.136 0.389,-0.132 0.366,-0.132L0.226,-0.132ZM0.069,-0.714L0.069,-0L0.377,-0C0.432,-0 0.479,-0.009 0.52,-0.028C0.56,-0.046 0.594,-0.071 0.621,-0.103C0.648,-0.135 0.668,-0.173 0.681,-0.217C0.694,-0.261 0.701,-0.309 0.701,-0.361C0.701,-0.42 0.693,-0.472 0.677,-0.516C0.66,-0.56 0.638,-0.597 0.609,-0.626C0.58,-0.655 0.545,-0.677 0.506,-0.692C0.466,-0.707 0.423,-0.714 0.377,-0.714L0.069,-0.714Z" style="fill-rule:nonzero;"/>
                </g>
                <g transform="matrix(682.555,0,0,682.555,1519.64,1320.79)">
                    <path d="M0.2,-0.597L0.2,-0.714L0.058,-0.714L0.058,-0.597L0.2,-0.597ZM0.058,-0.517L0.058,-0L0.2,-0L0.2,-0.517L0.058,-0.517Z" style="fill-rule:nonzero;"/>
                </g>
                <g transform="matrix(682.555,0,0,682.555,1675.26,1320.79)">
                    <path d="M0.295,-0.122C0.273,-0.122 0.255,-0.127 0.24,-0.136C0.225,-0.145 0.214,-0.157 0.205,-0.172C0.196,-0.187 0.189,-0.203 0.186,-0.222C0.182,-0.24 0.18,-0.258 0.18,-0.277C0.18,-0.296 0.182,-0.315 0.187,-0.333C0.191,-0.35 0.198,-0.366 0.208,-0.38C0.217,-0.393 0.229,-0.404 0.244,-0.412C0.258,-0.42 0.275,-0.424 0.295,-0.424C0.318,-0.424 0.338,-0.42 0.353,-0.411C0.368,-0.402 0.381,-0.391 0.39,-0.376C0.399,-0.361 0.406,-0.345 0.41,-0.326C0.414,-0.307 0.416,-0.286 0.416,-0.265C0.416,-0.246 0.414,-0.229 0.409,-0.212C0.404,-0.195 0.396,-0.179 0.386,-0.166C0.376,-0.153 0.363,-0.142 0.348,-0.134C0.333,-0.126 0.315,-0.122 0.295,-0.122ZM0.551,-0.033L0.551,-0.517L0.416,-0.517L0.416,-0.448L0.414,-0.448C0.397,-0.478 0.375,-0.499 0.35,-0.512C0.324,-0.525 0.294,-0.531 0.26,-0.531C0.224,-0.531 0.192,-0.524 0.165,-0.51C0.137,-0.496 0.114,-0.477 0.095,-0.454C0.076,-0.43 0.062,-0.403 0.053,-0.372C0.043,-0.341 0.038,-0.308 0.038,-0.275C0.038,-0.24 0.042,-0.206 0.051,-0.175C0.059,-0.143 0.072,-0.115 0.09,-0.092C0.108,-0.068 0.131,-0.049 0.159,-0.036C0.187,-0.022 0.22,-0.015 0.259,-0.015C0.29,-0.015 0.32,-0.022 0.349,-0.035C0.377,-0.048 0.399,-0.068 0.414,-0.095L0.416,-0.095L0.416,-0.027C0.417,0.01 0.408,0.04 0.39,0.064C0.371,0.088 0.342,0.1 0.302,0.1C0.277,0.1 0.254,0.095 0.235,0.085C0.216,0.074 0.203,0.056 0.196,0.029L0.055,0.029C0.057,0.058 0.065,0.084 0.08,0.105C0.094,0.126 0.112,0.143 0.134,0.156C0.155,0.169 0.179,0.179 0.206,0.186C0.232,0.192 0.258,0.195 0.283,0.195C0.342,0.195 0.39,0.187 0.425,0.171C0.46,0.155 0.487,0.135 0.506,0.113C0.525,0.09 0.537,0.065 0.543,0.038C0.548,0.011 0.551,-0.012 0.551,-0.033Z" style="fill-rule:nonzero;"/>
                </g>
                <g transform="matrix(682.555,0,0,682.555,2071.83,1320.79)">
                    <path d="M0.2,-0.597L0.2,-0.714L0.058,-0.714L0.058,-0.597L0.2,-0.597ZM0.058,-0.517L0.058,-0L0.2,-0L0.2,-0.517L0.058,-0.517Z" style="fill-rule:nonzero;"/>
                </g>
                <g transform="matrix(682.555,0,0,682.555,2241.1,1320.79)">
                    <path d="M0.234,-0.517L0.234,-0.672L0.092,-0.672L0.092,-0.517L0.006,-0.517L0.006,-0.422L0.092,-0.422L0.092,-0.117C0.092,-0.091 0.096,-0.07 0.105,-0.054C0.114,-0.038 0.126,-0.026 0.141,-0.017C0.156,-0.008 0.173,-0.003 0.193,0.001C0.212,0.004 0.233,0.005 0.255,0.005C0.269,0.005 0.283,0.005 0.298,0.004C0.313,0.003 0.326,0.002 0.338,-0L0.338,-0.11C0.331,-0.109 0.324,-0.108 0.317,-0.107C0.31,-0.106 0.302,-0.106 0.294,-0.106C0.27,-0.106 0.254,-0.11 0.246,-0.118C0.238,-0.126 0.234,-0.142 0.234,-0.166L0.234,-0.422L0.338,-0.422L0.338,-0.517L0.234,-0.517Z" style="fill-rule:nonzero;"/>
                </g>
                <g transform="matrix(682.555,0,0,682.555,2481.36,1320.79)">
                    <path d="M0.048,-0.358C0.05,-0.391 0.058,-0.419 0.073,-0.441C0.088,-0.463 0.106,-0.481 0.129,-0.494C0.152,-0.507 0.177,-0.517 0.206,-0.523C0.234,-0.528 0.262,-0.531 0.291,-0.531C0.317,-0.531 0.343,-0.529 0.37,-0.526C0.397,-0.522 0.421,-0.515 0.443,-0.504C0.465,-0.493 0.483,-0.478 0.497,-0.46C0.511,-0.44 0.518,-0.415 0.518,-0.384L0.518,-0.115C0.518,-0.092 0.519,-0.069 0.522,-0.048C0.525,-0.027 0.529,-0.011 0.536,-0L0.392,-0C0.389,-0.008 0.387,-0.016 0.386,-0.025C0.384,-0.033 0.383,-0.041 0.382,-0.05C0.359,-0.027 0.333,-0.01 0.302,-0.001C0.271,0.008 0.24,0.013 0.208,0.013C0.183,0.013 0.16,0.01 0.139,0.004C0.118,-0.002 0.099,-0.011 0.083,-0.024C0.067,-0.037 0.055,-0.053 0.046,-0.072C0.037,-0.091 0.032,-0.114 0.032,-0.141C0.032,-0.17 0.037,-0.195 0.048,-0.214C0.058,-0.233 0.071,-0.248 0.088,-0.259C0.104,-0.27 0.123,-0.279 0.144,-0.285C0.165,-0.29 0.186,-0.295 0.207,-0.298C0.228,-0.301 0.249,-0.304 0.27,-0.306C0.291,-0.308 0.309,-0.311 0.325,-0.315C0.341,-0.319 0.354,-0.325 0.363,-0.333C0.372,-0.34 0.377,-0.351 0.376,-0.366C0.376,-0.381 0.374,-0.394 0.369,-0.403C0.364,-0.412 0.357,-0.419 0.349,-0.424C0.34,-0.428 0.331,-0.432 0.32,-0.434C0.309,-0.435 0.297,-0.436 0.284,-0.436C0.256,-0.436 0.234,-0.43 0.218,-0.418C0.202,-0.406 0.193,-0.386 0.19,-0.358L0.048,-0.358ZM0.376,-0.253C0.37,-0.248 0.363,-0.243 0.354,-0.241C0.345,-0.238 0.335,-0.235 0.325,-0.233C0.314,-0.231 0.303,-0.229 0.292,-0.228C0.281,-0.227 0.269,-0.225 0.258,-0.223C0.247,-0.221 0.237,-0.218 0.227,-0.215C0.216,-0.212 0.207,-0.207 0.2,-0.202C0.192,-0.196 0.186,-0.189 0.181,-0.18C0.176,-0.171 0.174,-0.16 0.174,-0.147C0.174,-0.134 0.176,-0.124 0.181,-0.115C0.186,-0.106 0.192,-0.099 0.2,-0.095C0.208,-0.09 0.217,-0.086 0.228,-0.084C0.239,-0.082 0.25,-0.081 0.261,-0.081C0.289,-0.081 0.311,-0.086 0.326,-0.095C0.341,-0.104 0.353,-0.116 0.36,-0.129C0.367,-0.141 0.372,-0.155 0.374,-0.168C0.375,-0.181 0.376,-0.192 0.376,-0.2L0.376,-0.253Z" style="fill-rule:nonzero;"/>
                </g>
                <g transform="matrix(682.555,0,0,682.555,2866.32,1320.79)">
                    <rect x="0.058" y="-0.714" width="0.142" height="0.714" style="fill-rule:nonzero;"/>
                </g>
                <g transform="matrix(682.555,0,0,682.555,3232.17,1320.79)">
                    <path d="M0.069,-0.714L0.069,-0L0.574,-0L0.574,-0.132L0.226,-0.132L0.226,-0.714L0.069,-0.714Z" style="fill-rule:nonzero;"/>
                </g>
                <g transform="matrix(682.555,0,0,682.555,3636.92,1320.79)">
                    <path d="M0.048,-0.358C0.05,-0.391 0.058,-0.419 0.073,-0.441C0.088,-0.463 0.106,-0.481 0.129,-0.494C0.152,-0.507 0.177,-0.517 0.206,-0.523C0.234,-0.528 0.262,-0.531 0.291,-0.531C0.317,-0.531 0.343,-0.529 0.37,-0.526C0.397,-0.522 0.421,-0.515 0.443,-0.504C0.465,-0.493 0.483,-0.478 0.497,-0.46C0.511,-0.44 0.518,-0.415 0.518,-0.384L0.518,-0.115C0.518,-0.092 0.519,-0.069 0.522,-0.048C0.525,-0.027 0.529,-0.011 0.536,-0L0.392,-0C0.389,-0.008 0.387,-0.016 0.386,-0.025C0.384,-0.033 0.383,-0.041 0.382,-0.05C0.359,-0.027 0.333,-0.01 0.302,-0.001C0.271,0.008 0.24,0.013 0.208,0.013C0.183,0.013 0.16,0.01 0.139,0.004C0.118,-0.002 0.099,-0.011 0.083,-0.024C0.067,-0.037 0.055,-0.053 0.046,-0.072C0.037,-0.091 0.032,-0.114 0.032,-0.141C0.032,-0.17 0.037,-0.195 0.048,-0.214C0.058,-0.233 0.071,-0.248 0.088,-0.259C0.104,-0.27 0.123,-0.279 0.144,-0.285C0.165,-0.29 0.186,-0.295 0.207,-0.298C0.228,-0.301 0.249,-0.304 0.27,-0.306C0.291,-0.308 0.309,-0.311 0.325,-0.315C0.341,-0.319 0.354,-0.325 0.363,-0.333C0.372,-0.34 0.377,-0.351 0.376,-0.366C0.376,-0.381 0.374,-0.394 0.369,-0.403C0.364,-0.412 0.357,-0.419 0.349,-0.424C0.34,-0.428 0.331,-0.432 0.32,-0.434C0.309,-0.435 0.297,-0.436 0.284,-0.436C0.256,-0.436 0.234,-0.43 0.218,-0.418C0.202,-0.406 0.193,-0.386 0.19,-0.358L0.048,-0.358ZM0.376,-0.253C0.37,-0.248 0.363,-0.243 0.354,-0.241C0.345,-0.238 0.335,-0.235 0.325,-0.233C0.314,-0.231 0.303,-0.229 0.292,-0.228C0.281,-0.227 0.269,-0.225 0.258,-0.223C0.247,-0.221 0.237,-0.218 0.227,-0.215C0.216,-0.212 0.207,-0.207 0.2,-0.202C0.192,-0.196 0.186,-0.189 0.181,-0.18C0.176,-0.171 0.174,-0.16 0.174,-0.147C0.174,-0.134 0.176,-0.124 0.181,-0.115C0.186,-0.106 0.192,-0.099 0.2,-0.095C0.208,-0.09 0.217,-0.086 0.228,-0.084C0.239,-0.082 0.25,-0.081 0.261,-0.081C0.289,-0.081 0.311,-0.086 0.326,-0.095C0.341,-0.104 0.353,-0.116 0.36,-0.129C0.367,-0.141 0.372,-0.155 0.374,-0.168C0.375,-0.181 0.376,-0.192 0.376,-0.2L0.376,-0.253Z" style="fill-rule:nonzero;"/>
                </g>
                <g transform="matrix(682.555,0,0,682.555,4021.89,1320.79)">
                    <path d="M0.054,-0.517L0.054,-0L0.196,-0L0.196,-0.271C0.196,-0.324 0.205,-0.362 0.222,-0.385C0.239,-0.407 0.267,-0.419 0.306,-0.419C0.34,-0.419 0.364,-0.409 0.377,-0.388C0.39,-0.367 0.397,-0.335 0.397,-0.292L0.397,-0L0.539,-0L0.539,-0.318C0.539,-0.35 0.536,-0.379 0.531,-0.406C0.525,-0.432 0.515,-0.454 0.501,-0.473C0.487,-0.491 0.468,-0.505 0.444,-0.516C0.419,-0.526 0.388,-0.531 0.35,-0.531C0.32,-0.531 0.291,-0.524 0.262,-0.511C0.233,-0.497 0.21,-0.475 0.192,-0.445L0.189,-0.445L0.189,-0.517L0.054,-0.517Z" style="fill-rule:nonzero;"/>
                </g>
                <g transform="matrix(682.555,0,0,682.555,4392.51,1320.79)">
                    <path d="M0.421,-0.26C0.421,-0.239 0.419,-0.218 0.415,-0.198C0.411,-0.178 0.404,-0.16 0.395,-0.145C0.386,-0.129 0.373,-0.116 0.358,-0.107C0.342,-0.098 0.322,-0.093 0.299,-0.093C0.277,-0.093 0.258,-0.098 0.243,-0.108C0.227,-0.117 0.214,-0.13 0.204,-0.146C0.193,-0.161 0.186,-0.179 0.181,-0.199C0.176,-0.219 0.174,-0.239 0.174,-0.259C0.174,-0.28 0.176,-0.301 0.181,-0.321C0.185,-0.34 0.192,-0.358 0.202,-0.373C0.211,-0.388 0.224,-0.401 0.24,-0.41C0.256,-0.419 0.276,-0.424 0.299,-0.424C0.322,-0.424 0.342,-0.419 0.357,-0.41C0.372,-0.401 0.385,-0.389 0.395,-0.374C0.404,-0.359 0.411,-0.341 0.415,-0.322C0.419,-0.302 0.421,-0.281 0.421,-0.26ZM0.423,-0.066L0.423,-0L0.558,-0L0.558,-0.714L0.416,-0.714L0.416,-0.454L0.414,-0.454C0.398,-0.479 0.376,-0.499 0.349,-0.512C0.321,-0.525 0.292,-0.531 0.261,-0.531C0.223,-0.531 0.19,-0.524 0.161,-0.509C0.132,-0.494 0.109,-0.474 0.09,-0.449C0.07,-0.424 0.056,-0.396 0.047,-0.364C0.037,-0.331 0.032,-0.298 0.032,-0.263C0.032,-0.227 0.037,-0.192 0.047,-0.159C0.056,-0.126 0.07,-0.096 0.09,-0.071C0.109,-0.045 0.133,-0.024 0.162,-0.01C0.191,0.006 0.225,0.013 0.264,0.013C0.298,0.013 0.329,0.007 0.356,-0.006C0.383,-0.018 0.404,-0.038 0.421,-0.066L0.423,-0.066Z" style="fill-rule:nonzero;"/>
                </g>
                <g transform="matrix(682.555,0,0,682.555,1034.34,2023.14)">
                    <path d="M0.076,-0.714L0.569,-0.714L0.569,-0.606L0.201,-0.606L0.201,-0.419L0.524,-0.419L0.524,-0.317L0.201,-0.317L0.201,-0L0.076,-0L0.076,-0.714Z" style="fill-rule:nonzero;"/>
                </g>
                <g transform="matrix(682.555,0,0,682.555,1439.1,2023.14)">
                    <path d="M0.063,-0.714L0.177,-0.714L0.177,-0.606L0.063,-0.606L0.063,-0.714ZM0.063,-0.517L0.177,-0.517L0.177,-0L0.063,-0L0.063,-0.517Z" style="fill-rule:nonzero;"/>
                </g>
                <g transform="matrix(682.555,0,0,682.555,1576.29,2023.14)">
                    <rect x="0.063" y="-0.714" width="0.114" height="0.714" style="fill-rule:nonzero;"/>
                </g>
                <g transform="matrix(682.555,0,0,682.555,1727.14,2023.14)">
                    <path d="M0.415,-0.304C0.414,-0.322 0.41,-0.339 0.404,-0.356C0.397,-0.373 0.389,-0.387 0.378,-0.4C0.367,-0.412 0.353,-0.422 0.338,-0.43C0.322,-0.437 0.304,-0.441 0.285,-0.441C0.265,-0.441 0.247,-0.438 0.231,-0.431C0.214,-0.424 0.2,-0.414 0.189,-0.402C0.177,-0.389 0.168,-0.375 0.161,-0.358C0.154,-0.341 0.15,-0.323 0.149,-0.304L0.415,-0.304ZM0.149,-0.229C0.149,-0.209 0.152,-0.19 0.158,-0.171C0.163,-0.152 0.172,-0.136 0.183,-0.122C0.194,-0.108 0.209,-0.097 0.226,-0.089C0.243,-0.08 0.264,-0.076 0.288,-0.076C0.321,-0.076 0.348,-0.083 0.369,-0.098C0.389,-0.112 0.404,-0.133 0.414,-0.162L0.522,-0.162C0.516,-0.134 0.506,-0.109 0.491,-0.087C0.476,-0.065 0.459,-0.047 0.438,-0.032C0.417,-0.017 0.394,-0.005 0.369,0.003C0.343,0.01 0.316,0.014 0.288,0.014C0.247,0.014 0.211,0.007 0.18,-0.006C0.149,-0.019 0.122,-0.038 0.101,-0.062C0.079,-0.086 0.063,-0.115 0.052,-0.148C0.041,-0.181 0.035,-0.218 0.035,-0.258C0.035,-0.295 0.041,-0.329 0.053,-0.363C0.064,-0.396 0.081,-0.425 0.103,-0.45C0.124,-0.474 0.15,-0.494 0.181,-0.509C0.212,-0.524 0.246,-0.531 0.285,-0.531C0.326,-0.531 0.362,-0.523 0.395,-0.506C0.427,-0.489 0.454,-0.466 0.475,-0.438C0.496,-0.41 0.512,-0.378 0.522,-0.342C0.531,-0.305 0.534,-0.268 0.529,-0.229L0.149,-0.229Z" style="fill-rule:nonzero;"/>
                </g>
                <g transform="matrix(682.555,0,0,682.555,2296.39,2023.14)">
                    <path d="M0.074,-0.714L0.25,-0.714L0.447,-0.155L0.449,-0.155L0.641,-0.714L0.815,-0.714L0.815,-0L0.696,-0L0.696,-0.551L0.694,-0.551L0.496,-0L0.393,-0L0.195,-0.551L0.193,-0.551L0.193,-0L0.074,-0L0.074,-0.714Z" style="fill-rule:nonzero;"/>
                </g>
                <g transform="matrix(682.555,0,0,682.555,2875.88,2023.14)">
                    <path d="M0.493,-0.115C0.493,-0.101 0.495,-0.091 0.499,-0.085C0.502,-0.079 0.509,-0.076 0.52,-0.076L0.532,-0.076C0.537,-0.076 0.542,-0.077 0.548,-0.078L0.548,0.001C0.544,0.002 0.539,0.004 0.533,0.006C0.526,0.007 0.52,0.009 0.513,0.01C0.506,0.011 0.5,0.012 0.493,0.013C0.486,0.014 0.481,0.014 0.476,0.014C0.453,0.014 0.433,0.009 0.418,-0C0.403,-0.009 0.393,-0.026 0.388,-0.049C0.365,-0.027 0.337,-0.011 0.305,-0.001C0.272,0.009 0.24,0.014 0.209,0.014C0.186,0.014 0.163,0.011 0.142,0.005C0.121,-0.002 0.102,-0.011 0.086,-0.024C0.069,-0.036 0.056,-0.052 0.047,-0.071C0.037,-0.09 0.032,-0.112 0.032,-0.137C0.032,-0.169 0.038,-0.195 0.05,-0.215C0.061,-0.235 0.077,-0.251 0.096,-0.262C0.115,-0.273 0.136,-0.282 0.16,-0.287C0.183,-0.292 0.207,-0.295 0.231,-0.298C0.252,-0.302 0.271,-0.305 0.29,-0.307C0.309,-0.308 0.325,-0.311 0.34,-0.315C0.354,-0.319 0.365,-0.325 0.374,-0.334C0.382,-0.342 0.386,-0.354 0.386,-0.371C0.386,-0.386 0.383,-0.398 0.376,-0.407C0.369,-0.416 0.36,-0.424 0.35,-0.429C0.339,-0.434 0.328,-0.437 0.315,-0.439C0.302,-0.44 0.29,-0.441 0.279,-0.441C0.247,-0.441 0.221,-0.434 0.2,-0.421C0.179,-0.408 0.168,-0.387 0.165,-0.359L0.051,-0.359C0.053,-0.392 0.061,-0.42 0.075,-0.442C0.089,-0.464 0.107,-0.482 0.129,-0.495C0.15,-0.508 0.175,-0.518 0.202,-0.523C0.229,-0.528 0.257,-0.531 0.286,-0.531C0.311,-0.531 0.336,-0.528 0.361,-0.523C0.386,-0.518 0.408,-0.509 0.428,-0.497C0.447,-0.485 0.463,-0.47 0.475,-0.451C0.487,-0.432 0.493,-0.408 0.493,-0.381L0.493,-0.115ZM0.379,-0.259C0.362,-0.248 0.34,-0.241 0.315,-0.239C0.29,-0.236 0.264,-0.233 0.239,-0.228C0.227,-0.226 0.215,-0.223 0.204,-0.22C0.193,-0.216 0.183,-0.211 0.174,-0.205C0.165,-0.198 0.159,-0.19 0.154,-0.18C0.149,-0.169 0.146,-0.157 0.146,-0.142C0.146,-0.129 0.15,-0.119 0.157,-0.11C0.164,-0.101 0.173,-0.094 0.184,-0.09C0.194,-0.085 0.205,-0.081 0.218,-0.079C0.23,-0.077 0.241,-0.076 0.251,-0.076C0.264,-0.076 0.277,-0.078 0.292,-0.081C0.307,-0.084 0.321,-0.09 0.334,-0.098C0.346,-0.106 0.357,-0.116 0.366,-0.129C0.375,-0.141 0.379,-0.156 0.379,-0.174L0.379,-0.259Z" style="fill-rule:nonzero;"/>
                </g>
                <g transform="matrix(682.555,0,0,682.555,3241.73,2023.14)">
                    <path d="M0.06,-0.517L0.168,-0.517L0.168,-0.441L0.17,-0.439C0.187,-0.468 0.21,-0.49 0.238,-0.507C0.266,-0.523 0.297,-0.531 0.331,-0.531C0.388,-0.531 0.432,-0.516 0.465,-0.487C0.498,-0.458 0.514,-0.414 0.514,-0.355L0.514,-0L0.4,-0L0.4,-0.325C0.399,-0.366 0.39,-0.395 0.374,-0.414C0.358,-0.432 0.333,-0.441 0.299,-0.441C0.28,-0.441 0.262,-0.438 0.247,-0.431C0.232,-0.424 0.219,-0.414 0.208,-0.402C0.197,-0.389 0.189,-0.375 0.183,-0.358C0.177,-0.341 0.174,-0.324 0.174,-0.305L0.174,-0L0.06,-0L0.06,-0.517Z" style="fill-rule:nonzero;"/>
                </g>
                <g transform="matrix(682.555,0,0,682.555,3619.86,2023.14)">
                    <path d="M0.493,-0.115C0.493,-0.101 0.495,-0.091 0.499,-0.085C0.502,-0.079 0.509,-0.076 0.52,-0.076L0.532,-0.076C0.537,-0.076 0.542,-0.077 0.548,-0.078L0.548,0.001C0.544,0.002 0.539,0.004 0.533,0.006C0.526,0.007 0.52,0.009 0.513,0.01C0.506,0.011 0.5,0.012 0.493,0.013C0.486,0.014 0.481,0.014 0.476,0.014C0.453,0.014 0.433,0.009 0.418,-0C0.403,-0.009 0.393,-0.026 0.388,-0.049C0.365,-0.027 0.337,-0.011 0.305,-0.001C0.272,0.009 0.24,0.014 0.209,0.014C0.186,0.014 0.163,0.011 0.142,0.005C0.121,-0.002 0.102,-0.011 0.086,-0.024C0.069,-0.036 0.056,-0.052 0.047,-0.071C0.037,-0.09 0.032,-0.112 0.032,-0.137C0.032,-0.169 0.038,-0.195 0.05,-0.215C0.061,-0.235 0.077,-0.251 0.096,-0.262C0.115,-0.273 0.136,-0.282 0.16,-0.287C0.183,-0.292 0.207,-0.295 0.231,-0.298C0.252,-0.302 0.271,-0.305 0.29,-0.307C0.309,-0.308 0.325,-0.311 0.34,-0.315C0.354,-0.319 0.365,-0.325 0.374,-0.334C0.382,-0.342 0.386,-0.354 0.386,-0.371C0.386,-0.386 0.383,-0.398 0.376,-0.407C0.369,-0.416 0.36,-0.424 0.35,-0.429C0.339,-0.434 0.328,-0.437 0.315,-0.439C0.302,-0.44 0.29,-0.441 0.279,-0.441C0.247,-0.441 0.221,-0.434 0.2,-0.421C0.179,-0.408 0.168,-0.387 0.165,-0.359L0.051,-0.359C0.053,-0.392 0.061,-0.42 0.075,-0.442C0.089,-0.464 0.107,-0.482 0.129,-0.495C0.15,-0.508 0.175,-0.518 0.202,-0.523C0.229,-0.528 0.257,-0.531 0.286,-0.531C0.311,-0.531 0.336,-0.528 0.361,-0.523C0.386,-0.518 0.408,-0.509 0.428,-0.497C0.447,-0.485 0.463,-0.47 0.475,-0.451C0.487,-0.432 0.493,-0.408 0.493,-0.381L0.493,-0.115ZM0.379,-0.259C0.362,-0.248 0.34,-0.241 0.315,-0.239C0.29,-0.236 0.264,-0.233 0.239,-0.228C0.227,-0.226 0.215,-0.223 0.204,-0.22C0.193,-0.216 0.183,-0.211 0.174,-0.205C0.165,-0.198 0.159,-0.19 0.154,-0.18C0.149,-0.169 0.146,-0.157 0.146,-0.142C0.146,-0.129 0.15,-0.119 0.157,-0.11C0.164,-0.101 0.173,-0.094 0.184,-0.09C0.194,-0.085 0.205,-0.081 0.218,-0.079C0.23,-0.077 0.241,-0.076 0.251,-0.076C0.264,-0.076 0.277,-0.078 0.292,-0.081C0.307,-0.084 0.321,-0.09 0.334,-0.098C0.346,-0.106 0.357,-0.116 0.366,-0.129C0.375,-0.141 0.379,-0.156 0.379,-0.174L0.379,-0.259Z" style="fill-rule:nonzero;"/>
                </g>
                <g transform="matrix(682.555,0,0,682.555,3985.71,2023.14)">
                    <path d="M0.538,-0.027C0.538,0.051 0.516,0.109 0.473,0.148C0.429,0.186 0.366,0.205 0.284,0.205C0.258,0.205 0.232,0.202 0.206,0.197C0.179,0.192 0.155,0.183 0.134,0.17C0.112,0.157 0.094,0.141 0.079,0.12C0.064,0.099 0.056,0.074 0.053,0.044L0.167,0.044C0.17,0.06 0.176,0.073 0.184,0.083C0.192,0.093 0.202,0.101 0.213,0.107C0.224,0.112 0.236,0.116 0.249,0.118C0.262,0.119 0.276,0.12 0.291,0.12C0.337,0.12 0.371,0.109 0.392,0.086C0.413,0.063 0.424,0.031 0.424,-0.012L0.424,-0.091L0.422,-0.091C0.406,-0.062 0.384,-0.04 0.357,-0.024C0.329,-0.008 0.299,-0 0.267,-0C0.226,-0 0.191,-0.007 0.162,-0.022C0.133,-0.036 0.109,-0.056 0.09,-0.081C0.07,-0.106 0.057,-0.134 0.048,-0.167C0.039,-0.2 0.035,-0.235 0.035,-0.272C0.035,-0.307 0.04,-0.34 0.051,-0.371C0.062,-0.402 0.077,-0.43 0.097,-0.454C0.117,-0.477 0.141,-0.496 0.171,-0.51C0.2,-0.524 0.232,-0.531 0.269,-0.531C0.302,-0.531 0.332,-0.524 0.359,-0.511C0.386,-0.497 0.407,-0.475 0.422,-0.446L0.424,-0.446L0.424,-0.517L0.538,-0.517L0.538,-0.027ZM0.285,-0.09C0.31,-0.09 0.332,-0.095 0.35,-0.106C0.367,-0.116 0.382,-0.129 0.393,-0.147C0.404,-0.164 0.412,-0.183 0.417,-0.205C0.422,-0.226 0.424,-0.248 0.424,-0.27C0.424,-0.292 0.421,-0.313 0.416,-0.334C0.411,-0.355 0.403,-0.373 0.392,-0.389C0.381,-0.405 0.366,-0.418 0.349,-0.427C0.331,-0.436 0.31,-0.441 0.285,-0.441C0.26,-0.441 0.238,-0.436 0.221,-0.425C0.204,-0.414 0.19,-0.401 0.179,-0.384C0.168,-0.367 0.161,-0.347 0.156,-0.326C0.151,-0.304 0.149,-0.282 0.149,-0.261C0.149,-0.24 0.152,-0.219 0.157,-0.199C0.162,-0.178 0.171,-0.16 0.182,-0.144C0.193,-0.128 0.207,-0.115 0.224,-0.105C0.241,-0.095 0.261,-0.09 0.285,-0.09Z" style="fill-rule:nonzero;"/>
                </g>
                <g transform="matrix(682.555,0,0,682.555,4369.99,2023.14)">
                    <path d="M0.415,-0.304C0.414,-0.322 0.41,-0.339 0.404,-0.356C0.397,-0.373 0.389,-0.387 0.378,-0.4C0.367,-0.412 0.353,-0.422 0.338,-0.43C0.322,-0.437 0.304,-0.441 0.285,-0.441C0.265,-0.441 0.247,-0.438 0.231,-0.431C0.214,-0.424 0.2,-0.414 0.189,-0.402C0.177,-0.389 0.168,-0.375 0.161,-0.358C0.154,-0.341 0.15,-0.323 0.149,-0.304L0.415,-0.304ZM0.149,-0.229C0.149,-0.209 0.152,-0.19 0.158,-0.171C0.163,-0.152 0.172,-0.136 0.183,-0.122C0.194,-0.108 0.209,-0.097 0.226,-0.089C0.243,-0.08 0.264,-0.076 0.288,-0.076C0.321,-0.076 0.348,-0.083 0.369,-0.098C0.389,-0.112 0.404,-0.133 0.414,-0.162L0.522,-0.162C0.516,-0.134 0.506,-0.109 0.491,-0.087C0.476,-0.065 0.459,-0.047 0.438,-0.032C0.417,-0.017 0.394,-0.005 0.369,0.003C0.343,0.01 0.316,0.014 0.288,0.014C0.247,0.014 0.211,0.007 0.18,-0.006C0.149,-0.019 0.122,-0.038 0.101,-0.062C0.079,-0.086 0.063,-0.115 0.052,-0.148C0.041,-0.181 0.035,-0.218 0.035,-0.258C0.035,-0.295 0.041,-0.329 0.053,-0.363C0.064,-0.396 0.081,-0.425 0.103,-0.45C0.124,-0.474 0.15,-0.494 0.181,-0.509C0.212,-0.524 0.246,-0.531 0.285,-0.531C0.326,-0.531 0.362,-0.523 0.395,-0.506C0.427,-0.489 0.454,-0.466 0.475,-0.438C0.496,-0.41 0.512,-0.378 0.522,-0.342C0.531,-0.305 0.534,-0.268 0.529,-0.229L0.149,-0.229Z" style="fill-rule:nonzero;"/>
                </g>
                <g transform="matrix(682.555,0,0,682.555,4729.01,2023.14)">
                    <path d="M0.06,-0.517L0.167,-0.517L0.167,-0.417L0.169,-0.417C0.172,-0.431 0.179,-0.445 0.189,-0.458C0.198,-0.471 0.21,-0.484 0.224,-0.495C0.237,-0.505 0.252,-0.514 0.269,-0.521C0.286,-0.528 0.303,-0.531 0.32,-0.531C0.333,-0.531 0.343,-0.531 0.348,-0.53C0.353,-0.529 0.358,-0.529 0.363,-0.528L0.363,-0.418C0.355,-0.419 0.347,-0.42 0.339,-0.422C0.33,-0.423 0.322,-0.423 0.314,-0.423C0.295,-0.423 0.277,-0.419 0.26,-0.412C0.243,-0.404 0.228,-0.393 0.215,-0.378C0.202,-0.363 0.192,-0.344 0.185,-0.322C0.178,-0.3 0.174,-0.275 0.174,-0.246L0.174,-0L0.06,-0L0.06,-0.517Z" style="fill-rule:nonzero;"/>
                </g>
            </g>
        </g>
    </g>
</svg>
